# xmcd CD database file
#
# Track frame offsets:
#	183
#	13785
#	28548
#	42163
#	58505
#	75170
#	106150
#	118908
#	132748
#	148455
#	157465
#	172195
#	185783
#	214395
#	227155
#	263525
#	282943
#	291155
#
# Disc length: 4011 seconds
#
# Revision: 0
# Processed by: cddbd v1.4PL0 Copyright (c) Steve Scherf et al.
# Submitted via: CDex 1.50
#
DISCID=1a0fa912
DTITLE=Various Artist - The Stars Salute Rogers and Hart
DYEAR=1900
DGENRE=Jazz
TTITLE0=Thou Swell
TTITLE1=Spring Is Here
TTITLE2=It Never Entered My Mind
TTITLE3=There's A Small Hotel
TTITLE4=Isn't It Romantic?
TTITLE5=This Can't Be Love
TTITLE6=Lover
TTITLE7=I Could Write A Book
TTITLE8=Bewitched, Bothered And Bewildered
TTITLE9=Falling In Love With Love
TTITLE10=Manhattan
TTITLE11=You Took Advantage Of Me
TTITLE12=My Funny Valentine
TTITLE13=The Lady Is A Tramp
TTITLE14=My Romance
TTITLE15=Little Girl Blue
TTITLE16=I Didn't Know What Time It Was
TTITLE17=Blue Moon
EXTD=
EXTT0=
EXTT1=
EXTT2=
EXTT3=
EXTT4=
EXTT5=
EXTT6=
EXTT7=
EXTT8=
EXTT9=
EXTT10=
EXTT11=
EXTT12=
EXTT13=
EXTT14=
EXTT15=
EXTT16=
EXTT17=
PLAYORDER=
